<?xml version="1.0" encoding="UTF-8"?>
<!DOCTYPE svg PUBLIC "-//W3C//DTD SVG 1.1//EN" "http://www.w3.org/Graphics/SVG/1.1/DTD/svg11.dtd">
<svg xmlns="http://www.w3.org/2000/svg" version="1.1" width="500px" height="500px" style="shape-rendering:geometricPrecision; text-rendering:geometricPrecision; image-rendering:optimizeQuality; fill-rule:evenodd; clip-rule:evenodd" xmlns:xlink="http://www.w3.org/1999/xlink">
<g><path style="opacity:0.157" fill="#96d9df" d="M 400.5,87.5 C 301.861,86.3403 203.195,86.1736 104.5,87C 101.417,88.9253 98.0834,90.092 94.5,90.5C 96.9647,88.1633 99.9647,86.6633 103.5,86C 201.833,85.3333 300.167,85.3333 398.5,86C 399.416,86.2784 400.082,86.7784 400.5,87.5 Z"/></g>
<g><path style="opacity:1" fill="#3ec2c9" d="M 400.5,87.5 C 412.011,90.5083 419.511,97.8416 423,109.5C 424.593,133.134 424.927,156.801 424,180.5C 401.239,181.328 378.406,181.828 355.5,182C 347.414,185.09 342.581,190.924 341,199.5C 340.333,209.833 340.333,220.167 341,230.5C 342.376,240.876 348.209,247.043 358.5,249C 380.406,249.172 402.239,249.672 424,250.5C 424.438,273.434 424.604,296.267 424.5,319C 420.201,331.299 411.868,339.632 399.5,344C 375.169,344.5 350.836,344.667 326.5,344.5C 326.167,344.5 325.833,344.5 325.5,344.5C 243.335,343.501 161.002,343.167 78.5,343.5C 78.1784,265.478 78.5117,187.478 79.5,109.5C 81.3942,100.71 86.3942,94.3767 94.5,90.5C 98.0834,90.092 101.417,88.9253 104.5,87C 203.195,86.1736 301.861,86.3403 400.5,87.5 Z"/></g>
<g><path style="opacity:0.149" fill="#95dde3" d="M 79.5,109.5 C 78.5117,187.478 78.1784,265.478 78.5,343.5C 78.5,343.833 78.5,344.167 78.5,344.5C 77.3344,267.334 77.1677,190.001 78,112.5C 78.2321,111.263 78.7321,110.263 79.5,109.5 Z"/></g>
<g><path style="opacity:0.995" fill="#42396e" d="M 385.5,198.5 C 387.808,200.471 390.142,202.471 392.5,204.5C 397.931,212.147 397.764,219.814 392,227.5C 381.721,236.937 371.721,236.604 362,226.5C 355.676,215.041 357.843,205.541 368.5,198C 374.387,195.859 380.054,196.026 385.5,198.5 Z"/></g>
<g><path style="opacity:1" fill="#2c235e" d="M 377.5,200.5 C 381.33,201.367 384.663,203.034 387.5,205.5C 387.5,206.5 387.5,207.5 387.5,208.5C 388.5,208.5 389.5,208.5 390.5,208.5C 392.482,218.591 389.149,225.424 380.5,229C 370.866,229.535 365.199,225.035 363.5,215.5C 364.291,210.073 366.958,205.907 371.5,203C 373.611,202.155 375.611,201.322 377.5,200.5 Z"/></g>
<g><path style="opacity:0.282" fill="#c6c3d3" d="M 385.5,198.5 C 389.089,199.092 391.422,201.092 392.5,204.5C 390.142,202.471 387.808,200.471 385.5,198.5 Z"/></g>
<g><path style="opacity:1" fill="#37668a" d="M 78.5,343.5 C 161.002,343.167 243.335,343.501 325.5,344.5C 244.499,344.333 163.499,344.5 82.5,345C 84.7226,345.566 86.7226,346.4 88.5,347.5C 84.7858,347.41 81.4525,346.41 78.5,344.5C 78.5,344.167 78.5,343.833 78.5,343.5 Z"/></g>
<g><path style="opacity:0.997" fill="#372d66" d="M 325.5,344.5 C 325.5,355.833 325.5,367.167 325.5,378.5C 323.595,390.065 317.261,398.065 306.5,402.5C 303.496,403.668 300.496,403.668 297.5,402.5C 296.833,402.667 296.167,402.833 295.5,403C 296.5,403.333 297.5,403.667 298.5,404C 292.472,404.641 286.472,404.474 280.5,403.5C 276.838,403.277 273.505,402.277 270.5,400.5C 265.435,398.229 260.102,396.563 254.5,395.5C 247.713,394.342 241.046,392.676 234.5,390.5C 234.389,389.883 234.056,389.383 233.5,389C 229.888,387.85 226.222,387.017 222.5,386.5C 187.919,376.895 153.419,366.895 119,356.5C 118.667,356.833 118.333,357.167 118,357.5C 108.202,353.845 98.3684,350.512 88.5,347.5C 86.7226,346.4 84.7226,345.566 82.5,345C 163.499,344.5 244.499,344.333 325.5,344.5 Z"/></g>
<g><path style="opacity:1" fill="#2c235e" d="M 106.5,348.5 C 178.331,347.501 250.331,347.167 322.5,347.5C 323.689,360.921 322.022,373.921 317.5,386.5C 311.615,395.419 303.282,400.419 292.5,401.5C 289.5,401 286.5,400.5 283.5,400C 233.221,384.786 183.054,369.952 133,355.5C 124.324,352.623 115.491,350.289 106.5,348.5 Z"/></g>
<g><path style="opacity:0.149" fill="#948fa8" d="M 325.5,344.5 C 325.833,344.5 326.167,344.5 326.5,344.5C 326.286,354.479 326.62,364.479 327.5,374.5C 327.332,376.171 326.665,377.504 325.5,378.5C 325.5,367.167 325.5,355.833 325.5,344.5 Z"/></g>
<g><path style="opacity:0.443" fill="#a6a2b9" d="M 222.5,386.5 C 226.222,387.017 229.888,387.85 233.5,389C 234.056,389.383 234.389,389.883 234.5,390.5C 230.195,389.765 226.195,388.432 222.5,386.5 Z"/></g>
<g><path style="opacity:0.224" fill="#918daa" d="M 254.5,395.5 C 260.102,396.563 265.435,398.229 270.5,400.5C 264.781,399.743 259.448,398.076 254.5,395.5 Z"/></g>
<g><path style="opacity:0.122" fill="#756f95" d="M 306.5,402.5 C 305.158,403.793 303.491,404.626 301.5,405C 298.5,405.167 295.5,405.333 292.5,405.5C 288.203,405.722 284.203,405.055 280.5,403.5C 286.472,404.474 292.472,404.641 298.5,404C 297.5,403.667 296.5,403.333 295.5,403C 296.167,402.833 296.833,402.667 297.5,402.5C 300.496,403.668 303.496,403.668 306.5,402.5 Z"/></g>
</svg>
